<?xml version="1.0" standalone="no"?>
<!DOCTYPE svg PUBLIC "-//W3C//DTD SVG 20010904//EN"
 "http://www.w3.org/TR/2001/REC-SVG-20010904/DTD/svg10.dtd">
<svg version="1.0" xmlns="http://www.w3.org/2000/svg"
 width="302.000000pt" height="302.000000pt" viewBox="0 0 302.000000 302.000000"
 preserveAspectRatio="xMidYMid meet">

<g transform="translate(0.000000,302.000000) scale(0.100000,-0.100000)"
fill="#000000" stroke="none">
<path d="M1228 2910 c-560 -118 -978 -542 -1104 -1120 -15 -67 -19 -126 -19
-280 1 -175 4 -206 27 -306 132 -560 575 -981 1143 -1086 110 -20 401 -17 505
6 288 62 507 176 703 365 130 126 217 239 285 370 114 221 161 414 162 661 0
381 -145 729 -419 1001 -209 207 -434 331 -711 389 -131 27 -443 27 -572 0z
m286 -16 c3 -9 6 -51 6 -94 l0 -78 85 -7 c47 -4 88 -7 92 -7 11 1 25 62 18 79
-7 21 -35 -2 -35 -28 0 -16 -8 -19 -52 -19 -78 0 -81 4 -73 95 l8 78 76 -6
c75 -6 220 -33 230 -43 3 -2 -5 -44 -16 -92 -12 -47 -19 -90 -17 -94 4 -6 155
-58 170 -58 3 0 12 16 20 36 12 30 13 38 3 45 -16 9 -29 2 -29 -15 0 -30 -24
-34 -77 -14 -29 11 -53 23 -53 28 0 25 43 142 54 146 17 6 261 -97 284 -121 2
-2 -17 -39 -42 -82 l-46 -78 24 -20 c13 -11 47 -37 76 -58 l53 -39 23 29 c39
47 25 81 -16 38 l-23 -24 -41 31 c-23 17 -45 35 -49 38 -7 6 26 65 75 134 4 5
18 2 35 -9 54 -35 202 -157 208 -173 4 -11 -15 -36 -56 -78 -70 -71 -71 -55 9
-151 24 -29 49 -53 56 -53 18 0 59 47 52 59 -5 7 -15 5 -32 -6 -24 -16 -26
-15 -65 23 -21 21 -39 43 -39 49 0 6 19 29 43 51 74 70 72 70 106 32 26 -27
131 -175 154 -215 5 -7 -24 -29 -77 -59 l-85 -47 41 -81 c22 -45 42 -83 44
-85 2 -3 20 3 39 12 40 19 50 53 13 42 -39 -12 -41 -11 -64 30 -36 61 -32 70
41 104 36 17 69 31 74 31 15 0 111 -242 111 -279 0 -11 -23 -22 -82 -39 -45
-12 -84 -25 -86 -27 -3 -3 1 -41 9 -86 15 -89 29 -106 72 -95 37 9 35 36 -2
36 -32 0 -35 5 -46 76 -6 40 -5 42 25 53 17 6 53 13 80 17 60 8 53 28 85 -253
l6 -53 -95 0 c-109 0 -101 9 -111 -118 l-7 -83 43 3 c50 4 62 23 19 31 -32 7
-37 27 -24 96 l7 31 78 0 79 0 0 -41 c0 -61 -31 -247 -44 -263 -9 -12 -23 -11
-94 6 -46 11 -87 16 -92 12 -4 -5 -19 -44 -33 -86 -27 -83 -25 -90 24 -103 36
-9 47 12 15 27 -31 13 -32 29 -6 86 21 47 19 46 75 31 68 -17 95 -31 95 -47 0
-17 -85 -213 -108 -249 -8 -13 -19 -23 -25 -23 -6 0 -41 18 -78 40 -37 22 -72
40 -77 40 -10 0 -102 -134 -102 -148 0 -5 13 -18 29 -29 21 -17 31 -19 40 -10
9 9 6 16 -11 29 l-23 17 19 35 c37 69 46 71 114 31 34 -19 64 -40 67 -46 4 -6
-5 -27 -19 -47 -51 -74 -156 -202 -166 -202 -5 0 -38 27 -73 60 -36 33 -68 60
-72 60 -3 0 -35 -25 -70 -56 -67 -59 -68 -61 -31 -109 11 -15 18 -17 26 -9 9
9 8 18 -4 37 -17 24 -16 25 25 61 24 20 47 36 53 35 6 0 33 -25 59 -56 47 -54
48 -55 30 -75 -35 -40 -212 -168 -232 -168 -5 0 -28 34 -52 76 -49 85 -43 84
-151 34 l-67 -30 13 -37 c7 -21 20 -39 29 -41 19 -4 21 6 8 41 -8 22 -5 26 35
45 25 12 51 22 59 22 15 0 75 -107 75 -134 0 -15 -233 -116 -269 -116 -16 0
-24 11 -36 58 -32 112 -29 107 -66 106 -19 -1 -60 -4 -91 -8 l-58 -7 0 -45 c0
-38 3 -45 18 -42 11 2 17 13 17 33 0 27 4 30 40 37 81 14 80 15 99 -68 10 -41
16 -77 15 -78 -11 -10 -125 -27 -215 -33 l-104 -6 0 95 0 96 -91 7 c-49 4 -92
5 -95 3 -2 -3 -5 -22 -7 -43 -3 -48 20 -60 30 -15 l6 32 58 -4 c32 -2 61 -7
65 -10 3 -4 3 -41 -1 -82 l-7 -76 -42 0 c-46 0 -255 35 -264 45 -5 5 12 85 34
161 5 18 -3 24 -71 48 -42 15 -82 29 -90 32 -15 6 -49 -61 -39 -77 10 -16 24
-9 34 17 7 17 15 24 28 20 9 -2 36 -10 60 -17 31 -9 41 -17 38 -28 -3 -9 -12
-44 -22 -78 -10 -38 -22 -63 -30 -63 -34 0 -284 112 -284 128 0 4 18 38 40 76
22 37 40 74 40 81 0 13 -120 105 -136 105 -13 0 -54 -43 -54 -57 0 -20 27 -16
43 7 13 19 15 18 66 -16 49 -33 52 -37 38 -57 -7 -12 -26 -43 -41 -69 -15 -27
-31 -48 -35 -48 -27 0 -234 166 -239 191 -1 8 24 42 58 74 33 33 60 64 60 70
-1 5 -27 39 -59 74 l-58 64 -32 -19 c-30 -18 -38 -33 -25 -47 4 -3 16 0 28 8
11 8 24 15 28 15 3 0 24 -21 45 -46 l38 -47 -55 -48 c-29 -27 -61 -49 -70 -49
-16 0 -127 139 -169 210 l-20 36 79 47 c44 27 80 50 80 53 0 5 -70 158 -75
162 -9 10 -75 -21 -75 -35 0 -12 7 -14 34 -9 32 6 34 5 55 -43 11 -27 21 -54
21 -58 0 -5 -31 -26 -70 -46 l-69 -38 -20 40 c-26 51 -76 175 -89 224 l-10 37
89 27 c99 29 96 26 79 115 -22 107 -17 99 -58 96 -26 -2 -38 -8 -40 -20 -3
-14 3 -18 27 -18 33 0 40 -12 44 -84 2 -39 2 -39 -48 -53 -27 -7 -63 -12 -80
-11 -30 3 -30 4 -41 83 -6 44 -14 113 -18 153 l-6 72 94 0 c52 0 97 3 99 8 3
4 7 48 8 97 l4 90 -34 3 c-49 5 -64 -15 -23 -30 28 -11 32 -17 32 -48 0 -77
-4 -80 -91 -80 l-79 0 0 46 c0 53 29 246 39 263 6 9 28 7 90 -9 45 -12 86 -20
92 -18 13 4 71 157 64 168 -11 17 -66 33 -77 22 -8 -8 -4 -14 15 -23 32 -14
32 -20 11 -83 -16 -46 -17 -48 -49 -42 -19 4 -56 13 -84 22 l-50 14 19 55 c29
86 97 225 113 231 7 2 46 -14 85 -36 39 -23 76 -39 82 -35 6 4 31 37 55 73
l45 67 -30 29 c-24 25 -32 28 -42 18 -11 -11 -8 -17 12 -32 22 -16 23 -21 12
-42 -7 -12 -24 -36 -37 -52 l-23 -29 -44 26 c-24 14 -55 34 -68 45 l-24 19 29
46 c41 62 157 197 170 197 6 0 39 -29 74 -64 l64 -65 69 62 c37 33 68 64 68
67 0 3 -11 19 -24 35 -20 24 -27 27 -37 18 -10 -10 -9 -17 6 -33 18 -19 18
-21 -1 -41 -10 -12 -32 -30 -47 -41 l-29 -21 -54 54 c-30 29 -54 57 -54 61 0
21 217 188 245 188 6 0 31 -34 55 -75 25 -42 51 -75 60 -75 8 1 47 18 87 38
l71 37 -15 38 c-8 20 -21 37 -29 37 -17 0 -17 -10 -4 -45 9 -24 7 -27 -43 -49
-28 -13 -55 -22 -59 -20 -7 5 -62 101 -71 127 -5 14 7 23 61 48 123 56 212 83
225 70 7 -7 21 -47 32 -89 23 -87 12 -82 133 -62 l73 12 -3 41 c-4 50 -25 61
-30 15 -3 -31 -6 -33 -61 -44 -56 -11 -59 -11 -66 10 -15 38 -34 136 -28 142
9 10 168 32 238 33 53 1 68 -2 73 -15z"/>
<path d="M1311 2859 c-30 -5 -56 -11 -57 -12 -4 -4 13 -78 20 -84 3 -3 12 -3
20 0 11 5 14 15 10 35 -6 29 -5 29 52 36 31 4 61 3 65 -1 4 -4 10 -40 14 -79
l7 -70 -132 -23 c-72 -12 -133 -21 -135 -19 -1 2 -13 38 -25 81 -13 44 -30 81
-37 84 -15 6 -180 -54 -189 -68 -3 -5 5 -27 16 -50 19 -37 23 -40 37 -26 12
12 13 19 3 37 -6 12 -8 26 -3 30 15 15 106 41 113 33 8 -9 51 -135 47 -138
-16 -12 -223 -105 -232 -105 -7 0 -32 32 -55 70 -23 39 -49 70 -57 70 -15 0
-163 -106 -163 -117 0 -12 51 -73 61 -73 19 0 21 31 4 50 -21 23 -18 27 39 68
l45 33 45 -67 45 -67 -57 -43 c-31 -23 -77 -61 -101 -84 l-44 -41 -26 23 c-14
12 -45 40 -68 61 -22 22 -46 38 -51 36 -17 -7 -122 -143 -122 -159 0 -16 48
-50 69 -50 18 0 12 31 -9 48 -19 17 -19 18 16 65 20 26 39 47 43 47 4 0 33
-24 64 -52 l56 -53 -64 -90 c-35 -49 -70 -98 -77 -108 -12 -17 -17 -16 -90 22
-42 23 -81 41 -86 41 -10 0 -67 -120 -78 -164 -5 -23 -2 -28 30 -41 20 -9 41
-13 46 -10 12 7 13 35 2 35 -5 0 -16 6 -26 13 -16 12 -16 15 5 65 12 28 26 52
31 52 24 0 139 -63 135 -73 -2 -7 -19 -52 -36 -102 -50 -138 -49 -135 -73
-135 -13 0 -48 7 -78 15 -87 23 -86 24 -99 -54 -6 -39 -11 -86 -11 -105 0 -36
0 -36 45 -36 53 0 63 24 14 34 -31 6 -31 6 -25 53 11 73 16 84 34 79 9 -2 43
-10 74 -16 l58 -11 -6 -122 c-3 -67 -7 -127 -9 -133 -2 -7 -43 -14 -100 -19
l-96 -7 7 -61 c4 -34 10 -80 13 -102 7 -39 8 -40 45 -39 62 2 78 44 16 44 -32
0 -40 14 -40 75 0 51 7 55 93 55 l62 0 19 -119 c10 -66 16 -125 14 -133 -3 -8
-40 -25 -82 -38 -51 -16 -76 -29 -76 -39 0 -32 63 -181 77 -181 24 0 74 31 70
43 -2 7 -19 11 -40 9 -34 -3 -36 -1 -52 49 -17 50 -17 53 1 66 10 7 36 18 57
24 21 5 44 12 52 15 9 4 32 -32 73 -115 l61 -120 -67 -40 c-37 -23 -73 -45
-81 -50 -10 -7 -5 -21 27 -67 22 -33 52 -72 66 -89 l25 -30 33 32 c24 25 30
35 21 44 -9 9 -18 8 -37 -4 -25 -17 -26 -16 -61 29 -19 26 -35 50 -35 54 0 7
118 90 129 90 3 0 14 -12 23 -28 9 -15 44 -58 77 -95 34 -37 61 -73 61 -80 0
-6 -28 -39 -61 -73 l-62 -62 34 -30 c19 -16 58 -48 86 -71 l53 -41 26 40 c22
32 25 43 15 53 -10 9 -17 6 -36 -15 l-23 -27 -46 36 c-25 20 -46 41 -46 47 0
6 23 36 49 66 l49 55 29 -22 c15 -13 63 -46 106 -75 42 -29 77 -56 77 -61 0
-4 -16 -39 -35 -77 -19 -38 -35 -76 -35 -83 0 -14 146 -87 174 -87 13 0 36 48
36 76 0 24 -30 15 -40 -11 -12 -31 -19 -31 -80 0 -38 19 -48 29 -43 43 8 22
64 122 68 122 2 0 43 -15 92 -34 48 -18 103 -37 121 -41 30 -6 33 -10 28 -34
-25 -118 -29 -152 -19 -162 13 -13 166 -34 188 -26 10 4 15 20 15 47 0 34 -3
41 -17 38 -11 -2 -19 -14 -21 -32 -3 -27 -5 -28 -50 -21 -84 11 -84 11 -76 63
15 103 9 97 115 94 52 -1 113 -5 137 -8 l42 -5 0 -89 c0 -49 3 -91 8 -93 8 -5
143 9 180 18 23 6 28 28 16 73 -10 36 -40 24 -36 -15 3 -35 -12 -43 -84 -43
l-41 0 -7 61 c-10 102 -13 97 52 104 31 4 82 13 113 21 95 24 93 25 119 -71
17 -63 27 -85 39 -85 15 0 162 53 182 66 10 6 -9 60 -27 75 -22 18 -37 -2 -25
-33 9 -24 7 -27 -41 -47 -28 -12 -55 -21 -59 -21 -10 0 -37 61 -48 110 l-8 36
119 56 119 57 50 -79 51 -80 56 40 c32 21 70 50 86 63 l29 24 -28 37 c-25 33
-30 35 -43 22 -14 -14 -14 -17 3 -36 14 -15 15 -23 6 -34 -15 -18 -90 -70 -95
-65 -16 20 -87 131 -84 133 17 10 113 89 151 124 55 50 41 54 141 -37 l49 -45
39 45 c21 24 50 61 65 83 l27 38 -27 24 c-31 26 -52 30 -63 12 -4 -7 2 -18 14
-26 29 -19 28 -27 -10 -76 -17 -22 -33 -43 -34 -45 -4 -4 -31 16 -83 61 l-43
37 59 83 c33 46 65 93 72 106 16 30 28 28 107 -13 37 -19 72 -35 79 -35 11 0
86 161 85 183 0 12 -69 39 -80 32 -12 -7 -13 -35 -2 -35 5 0 16 -6 26 -13 16
-12 16 -15 -3 -59 -10 -25 -24 -48 -29 -52 -9 -5 -142 49 -142 58 0 2 15 44
34 92 19 49 37 104 41 121 8 38 0 37 105 17 46 -8 86 -12 90 -7 9 10 30 128
30 170 0 27 -4 32 -36 38 -21 3 -41 2 -47 -4 -16 -16 1 -41 29 -41 26 0 26 -1
20 -47 -12 -81 -13 -83 -49 -76 -18 3 -50 11 -72 18 l-40 11 4 125 c2 68 5
127 8 132 2 4 47 7 99 7 l96 0 -7 68 c-4 37 -10 85 -14 107 -7 39 -8 40 -46
38 -21 -2 -43 -7 -48 -12 -15 -15 2 -31 33 -31 34 0 43 -22 38 -86 l-3 -39
-75 -3 -75 -3 -18 108 c-28 161 -34 144 61 177 63 22 82 33 82 47 0 16 -52
158 -66 181 -3 4 -23 -1 -45 -13 -28 -14 -39 -25 -37 -37 3 -9 11 -15 19 -13
8 2 22 6 31 8 13 4 23 -6 38 -38 30 -67 28 -72 -50 -99 -38 -13 -71 -22 -73
-20 -8 10 -107 223 -107 231 0 4 34 29 75 55 44 28 74 53 71 60 -3 7 -30 47
-61 88 -60 82 -60 82 -114 36 -23 -19 -23 -22 -8 -37 15 -15 18 -15 35 0 10 9
23 17 28 17 10 0 74 -78 74 -91 0 -8 -118 -89 -129 -89 -3 0 -17 17 -31 37
-14 21 -52 66 -84 100 l-59 64 68 70 c37 38 66 71 64 73 -2 2 -40 32 -83 66
-85 67 -93 68 -124 18 -13 -23 -14 -30 -4 -40 11 -11 18 -8 37 14 l24 27 49
-41 50 -42 -51 -58 c-27 -32 -51 -58 -53 -58 -9 0 -209 142 -212 150 -2 5 16
43 39 85 23 42 38 80 33 84 -10 9 -177 81 -188 81 -6 0 -16 -21 -30 -67 -10
-33 29 -31 46 2 l13 24 57 -26 57 -25 -35 -69 c-19 -38 -37 -69 -39 -69 -3 0
-32 11 -65 24 -33 14 -84 32 -114 40 -30 9 -57 20 -60 24 -3 4 4 46 14 92 14
61 16 86 8 91 -18 11 -176 32 -193 25 -10 -3 -15 -19 -15 -46 0 -33 3 -40 20
-40 15 0 20 7 20 24 0 14 4 27 9 30 8 6 110 -10 118 -18 5 -5 -18 -132 -26
-144 -9 -14 -252 14 -262 30 -5 7 -9 48 -9 91 l0 77 -52 -1 c-29 -1 -77 -5
-107 -10z m479 -243 c273 -73 474 -207 637 -426 93 -125 179 -331 204 -490 19
-124 6 -365 -25 -479 -82 -296 -290 -557 -556 -700 -88 -47 -258 -106 -350
-120 -84 -14 -290 -14 -366 0 -152 27 -324 95 -454 181 -85 55 -243 215 -303
305 -255 384 -254 895 3 1273 55 81 176 208 254 267 119 89 327 180 479 209
116 22 358 12 477 -20z"/>
<path d="M1777 2460 c-94 -24 -186 -98 -223 -180 -11 -25 -25 -56 -31 -70 -9
-20 -12 1 -12 108 l-1 132 -175 0 -175 0 -2 -704 c-3 -676 -4 -705 -22 -725
-11 -12 -31 -21 -47 -21 -83 0 -89 21 -89 295 l0 225 -175 0 -175 0 0 -222 c0
-263 8 -330 50 -414 54 -111 165 -184 311 -204 228 -32 415 80 479 287 l17 56
12 -49 c33 -131 84 -200 184 -249 125 -61 324 -68 442 -16 141 62 215 228 215
480 0 135 -12 194 -57 291 -32 68 -54 94 -230 269 -107 107 -203 212 -214 232
-10 21 -19 58 -19 83 0 36 5 48 26 65 15 12 37 21 49 21 12 0 34 -9 49 -21 24
-19 26 -26 26 -100 l0 -79 180 0 180 0 0 63 c-1 145 -56 296 -136 366 -72 63
-137 83 -279 87 -66 2 -137 -1 -158 -6z m-7 -925 c214 -219 231 -245 238 -372
7 -123 -10 -163 -68 -163 -77 0 -90 29 -90 210 l0 140 -170 0 -170 0 0 263 1
262 37 -75 c32 -65 62 -101 222 -265z"/>
</g>
</svg>
